<svg width="182" height="124" viewBox="0 0 182 124" fill="none" xmlns="http://www.w3.org/2000/svg">
<path d="M158.672 23.1617H164.932C166.405 23.1617 167.718 22.6175 168.888 21.4957L168.892 21.4918C170.072 20.3819 170.654 19.0408 170.654 17.4391C170.654 15.9142 170.098 14.6076 168.961 13.4948L168.957 13.4908C167.819 12.3525 166.485 11.7936 164.932 11.7936H158.672V23.1617ZM180.373 56.233C180.373 56.4381 180.322 56.6838 180.131 56.8746C179.94 57.0654 179.694 57.1168 179.489 57.1168H170.578C170.428 57.1168 170.224 57.0913 170.048 56.9596C169.845 56.8074 169.771 56.5852 169.771 56.3864V40.1012C169.771 38.3375 169.156 36.8218 167.913 35.5309C166.678 34.2478 165.17 33.6101 163.358 33.61H158.67L158.595 56.235C158.595 56.4161 158.56 56.644 158.408 56.8336C158.239 57.0449 158.001 57.1167 157.788 57.1168H148.877C148.664 57.1168 148.425 57.0451 148.256 56.8336C148.104 56.6433 148.069 56.4145 148.069 56.233V56.2311L148.223 2.18909C148.223 2.0099 148.269 1.78455 148.446 1.60706C148.624 1.429 148.851 1.38342 149.03 1.38342H164.932C167.859 1.38342 170.558 2.09653 173.019 3.52502C175.471 4.94881 177.426 6.86384 178.878 9.26526L179.148 9.72131C180.453 12.0222 181.103 14.5986 181.103 17.4391C181.103 19.4109 180.801 21.2133 180.188 22.8395C179.586 24.4341 178.875 25.7954 178.048 26.9156C177.416 27.8004 176.812 28.5142 176.238 29.0475C178.94 32.2055 180.295 35.8955 180.296 40.0983L180.373 56.2301V56.233Z" fill="black" stroke="black"/>
<path d="M142.079 32.8795C142.079 33.0589 142.033 33.2855 141.856 33.4635C141.678 33.6416 141.451 33.6871 141.272 33.6871H125.563V46.4381H141.272C141.484 46.4381 141.723 46.5097 141.893 46.7213C142.045 46.9117 142.079 47.1404 142.079 47.3219V56.3102C142.079 56.4896 142.033 56.7163 141.856 56.8942C141.678 57.072 141.451 57.1168 141.272 57.1168H115.845C115.632 57.1168 115.393 57.0451 115.224 56.8336C115.072 56.6433 115.037 56.4145 115.037 56.233V56.2321L115.114 2.19006C115.114 2.01078 115.159 1.78485 115.337 1.60706C115.515 1.4291 115.742 1.38347 115.921 1.38342H141.194C141.407 1.38342 141.646 1.45525 141.816 1.66663C141.968 1.85687 142.002 2.08581 142.002 2.26721V11.0631C142.002 11.2426 141.956 11.469 141.778 11.6471C141.6 11.8251 141.374 11.8707 141.194 11.8707H125.563V23.1617H141.194C141.374 23.1617 141.6 23.2073 141.778 23.3854C141.955 23.562 142.001 23.7857 142.002 23.9645L142.079 32.8756V32.8795Z" fill="black" stroke="black"/>
<path d="M109.431 56.233C109.431 56.4145 109.397 56.6433 109.245 56.8336C109.075 57.0452 108.836 57.1168 108.624 57.1168H99.7125C99.4998 57.1168 99.2608 57.0452 99.0914 56.8336C98.9395 56.6436 98.905 56.4153 98.9049 56.234L98.8317 17.6959L91.4821 28.3629L91.068 28.9625L90.6578 28.361L83.3854 17.7086L83.3121 56.234C83.312 56.4153 83.2776 56.6436 83.1256 56.8336C82.9564 57.0449 82.718 57.1167 82.5055 57.1168H73.5944C73.3817 57.1168 73.1426 57.0451 72.9733 56.8336C72.821 56.6433 72.7868 56.4145 72.7867 56.233V56.2311L72.9401 2.18909C72.9403 2.0099 72.9863 1.78455 73.1637 1.60706C73.3417 1.429 73.5682 1.38342 73.7477 1.38342H83.3502C83.7513 1.38348 84.0659 1.59462 84.2877 1.89026L84.2936 1.89807L84.2985 1.90588L91.069 11.6813L97.8024 1.90686L97.8082 1.89905L97.8141 1.89026C98.0501 1.57565 98.3838 1.38343 98.7906 1.38342H108.431C108.61 1.38342 108.838 1.42188 109.023 1.58655C109.219 1.76071 109.277 1.99369 109.277 2.18909L109.431 56.2311V56.233Z" fill="black" stroke="black"/>
<path d="M51.8931 10.9492C50.4176 10.9492 49.1625 11.4814 48.1021 12.5654C47.0497 13.6412 46.5162 14.9966 46.5161 16.6709V41.5986C46.5161 43.1899 47.046 44.5541 48.1128 45.7158H48.1118C49.1737 46.847 50.4262 47.3984 51.8931 47.3984C53.3249 47.3983 54.577 46.8284 55.6694 45.6426C56.7721 44.42 57.3077 43.0778 57.3081 41.6006L57.231 16.6729V16.6709C57.2309 15.0456 56.721 13.6965 55.7104 12.5918C54.708 11.4961 53.4483 10.9493 51.8931 10.9492ZM67.8335 41.5986C67.8335 44.5508 67.1207 47.2628 65.6919 49.7236L65.6909 49.7256C64.242 52.2019 62.3149 54.1824 59.9136 55.6602C57.5016 57.1445 54.824 57.8847 51.8931 57.8848C49.0115 57.8848 46.3477 57.1433 43.9126 55.6611L43.9106 55.6602C41.5114 54.1837 39.5726 52.218 38.0981 49.7695L38.0942 49.7637C36.6398 47.2779 35.9136 44.5526 35.9136 41.5986V41.5977L35.9907 16.6699C35.9909 13.6692 36.7149 10.9561 38.1714 8.54395C39.5962 6.1165 41.5248 4.17464 43.9507 2.72363C46.385 1.24188 49.0362 0.5 51.8931 0.5C54.8456 0.500073 57.5099 1.22626 59.8726 2.68555H59.8735C62.2505 4.13812 64.153 6.09409 65.5767 8.5459H65.5757C67.0307 10.9819 67.7562 13.6937 67.7563 16.6699L67.8335 41.5977V41.5986Z" fill="black" stroke="black"/>
<path d="M16.3252 0.5C19.1159 0.5 21.6644 1.126 23.96 2.38379L24.416 2.64453L24.4199 2.64648C26.8209 4.0977 28.7239 6.03959 30.123 8.4668C31.5543 10.9052 32.2656 13.6444 32.2656 16.6709V20.2812C32.2656 20.494 32.194 20.733 31.9824 20.9023C31.7921 21.0546 31.5633 21.0889 31.3818 21.0889H22.5479C22.3684 21.0889 22.1419 21.0433 21.9639 20.8652C21.7859 20.6872 21.7402 20.4607 21.7402 20.2812V17.2861C21.7402 15.3887 21.208 13.8582 20.1719 12.6572C19.1379 11.4589 17.8664 10.8721 16.3252 10.8721C14.9724 10.8721 13.755 11.4273 12.6572 12.5967C11.5647 13.7605 11.0254 15.1107 11.0254 16.6709V41.5986C11.0254 43.1885 11.5543 44.5519 12.6191 45.7129L12.8203 45.9189C13.8388 46.9161 15.0014 47.3984 16.3252 47.3984C17.8808 47.3984 19.1561 46.8507 20.1855 45.751C21.2199 44.6207 21.7402 43.2466 21.7402 41.5986V38.2197H16.748C16.5413 38.2197 16.2928 38.1733 16.0947 37.9932C15.8877 37.8049 15.8252 37.5529 15.8252 37.335V28.54C15.8252 28.322 15.8877 28.0701 16.0947 27.8818C16.2928 27.7017 16.5413 27.6553 16.748 27.6553H31.459C31.6717 27.6553 31.9108 27.7279 32.0801 27.9395C32.2321 28.1297 32.2656 28.3587 32.2656 28.54V41.5986C32.2656 44.6252 31.5541 47.3759 30.124 49.8389L30.1221 49.8428C28.6732 52.2927 26.7588 54.2472 24.3828 55.6992C21.9942 57.1589 19.3038 57.8848 16.3252 57.8848C13.3961 57.8847 10.7436 57.1583 8.38086 55.6982V55.6973C6.00585 54.2454 4.092 52.2919 2.64355 49.8428L2.6416 49.8389C1.2116 47.376 0.5 44.6251 0.5 41.5986V16.6709C0.500032 13.7194 1.22528 11.0202 2.67969 8.58496L2.95312 8.12988C4.34601 5.88859 6.17036 4.08409 8.42285 2.72266C10.8318 1.24103 13.4696 0.500037 16.3252 0.5Z" fill="black" stroke="black"/>
<path d="M167.313 66.9357C167.5 66.9357 167.702 66.984 167.875 67.1222C168.003 67.2249 168.087 67.3542 168.14 67.4875L168.183 67.6213L168.187 67.6398L168.19 67.6574L177.562 121.699L177.565 121.718L177.567 121.736C177.586 121.922 177.571 122.175 177.402 122.386C177.222 122.611 176.964 122.669 176.762 122.669H168.043C167.834 122.669 167.599 122.616 167.409 122.444C167.226 122.277 167.15 122.058 167.126 121.857V121.858L166.344 116.524H156.491L155.709 121.858L155.708 121.857C155.686 122.047 155.621 122.259 155.453 122.427C155.272 122.609 155.04 122.669 154.83 122.669H146.073C145.861 122.669 145.621 122.597 145.452 122.386C145.3 122.196 145.266 121.967 145.266 121.785V121.74L145.273 121.696L155.029 67.6545L155.032 67.6379L155.036 67.6213C155.081 67.4435 155.173 67.2592 155.344 67.1222C155.517 66.984 155.718 66.9358 155.905 66.9357H167.313ZM158.221 107.112H164.622L161.566 86.1955L158.221 107.112Z" fill="black" stroke="black"/>
<path d="M127.521 66.1291C130.219 66.1291 132.716 66.7571 135.004 68.0139L135.458 68.2736L135.462 68.2756L135.906 68.5529C138.099 69.969 139.867 71.8046 141.203 74.0559H141.202C142.659 76.4682 143.384 79.1693 143.384 82.1467V88.5998C143.384 88.7792 143.34 89.0059 143.162 89.1838C142.984 89.3617 142.757 89.4064 142.578 89.4064H133.744C133.564 89.4064 133.338 89.3615 133.16 89.1838C132.984 89.0078 132.937 88.7841 132.936 88.6057L132.859 82.1525V82.1467C132.859 80.4166 132.323 79.052 131.277 78.0061C130.216 76.9449 128.972 76.4241 127.521 76.424C126.053 76.424 124.8 76.9765 123.738 78.1096C122.673 79.2457 122.144 80.5833 122.144 82.1467C122.144 83.79 122.487 85.1244 123.14 86.1779L123.274 86.3742C123.977 87.3592 125.197 88.3444 126.99 89.3117H126.989C127.211 89.4234 127.69 89.682 128.416 90.0822C129.157 90.491 129.973 90.9506 130.865 91.4602C131.789 91.9478 132.625 92.3973 133.371 92.8088H133.37L134.697 93.4914L134.707 93.4963L134.717 93.5022C137.384 94.9925 139.506 96.8316 141.065 99.0256H141.064C142.671 101.25 143.462 103.969 143.462 107.152C143.462 110.227 142.751 113.004 141.32 115.468L141.318 115.472C139.868 117.924 137.939 119.867 135.535 121.293C133.124 122.724 130.449 123.438 127.521 123.438C124.64 123.438 121.976 122.696 119.541 121.214L119.539 121.212C117.139 119.735 115.212 117.768 113.762 115.318L113.759 115.313C112.332 112.827 111.619 110.104 111.619 107.152V103.54C111.619 103.334 111.665 103.086 111.844 102.888C112.033 102.681 112.285 102.618 112.503 102.618H121.338C121.568 102.618 121.81 102.706 121.972 102.93C122.113 103.124 122.144 103.354 122.144 103.54V107.152C122.144 108.741 122.673 110.104 123.737 111.265H123.738C124.8 112.398 126.053 112.95 127.521 112.95C129.012 112.95 130.275 112.387 131.336 111.234C132.408 110.042 132.936 108.688 132.936 107.152C132.936 105.491 131.863 103.948 129.424 102.554L129.416 102.549L129.407 102.543C129.01 102.295 128.483 101.994 127.822 101.638L127.811 101.632L127.801 101.626C127.169 101.247 126.407 100.815 125.515 100.331C124.619 99.8446 123.748 99.3704 122.903 98.9094L122.893 98.9045L123.142 98.4709L122.893 98.9035C122.051 98.4187 121.234 97.96 120.444 97.5266L120.43 97.5188C117.497 95.7904 115.29 93.6171 113.833 90.9934L113.83 90.9875C112.404 88.3475 111.696 85.3969 111.696 82.1467C111.696 79.1414 112.435 76.4126 113.92 73.9738L113.921 73.9719C115.396 71.574 117.324 69.6721 119.701 68.2727C122.108 66.8446 124.718 66.1291 127.521 66.1291Z" fill="black" stroke="black"/>
<path d="M107.741 121.785C107.741 121.967 107.707 122.196 107.554 122.386C107.385 122.597 107.146 122.669 106.933 122.669H98.0222C97.8172 122.669 97.5714 122.618 97.3806 122.427C97.1899 122.236 97.1384 121.99 97.1384 121.785V121.784L97.2156 67.7424C97.2157 67.5631 97.2607 67.3371 97.4382 67.1593C97.6162 66.9814 97.8428 66.9358 98.0222 66.9357H106.857C107.037 66.9358 107.263 66.9814 107.441 67.1593C107.619 67.3371 107.664 67.5631 107.664 67.7424L107.741 121.784V121.785Z" fill="black" stroke="black"/>
<path d="M75.5918 66.9357C75.7968 66.9358 76.0427 66.9872 76.2334 67.1779C76.4241 67.3687 76.4755 67.6145 76.4756 67.8195V67.8205L76.3994 111.99H92.1074C92.3125 111.99 92.5582 112.042 92.749 112.233C92.9399 112.423 92.9912 112.669 92.9912 112.874V121.785C92.9912 121.99 92.9398 122.236 92.749 122.427C92.5582 122.618 92.3125 122.669 92.1074 122.669H66.6807C66.468 122.669 66.2289 122.597 66.0596 122.386C65.9073 122.196 65.8731 121.967 65.873 121.785V121.784L65.9502 67.8195L65.9609 67.6603C65.9843 67.4956 66.0491 67.3212 66.1924 67.1779C66.3832 66.9872 66.6289 66.9357 66.834 66.9357H75.5918Z" fill="black" stroke="black"/>
<path d="M30.6909 66.9357L30.8862 66.9494C31.0845 66.9776 31.2853 67.0545 31.4478 67.217C31.6639 67.4334 31.728 67.7176 31.728 67.9738V76.3088C31.728 76.5394 31.6698 76.8045 31.4663 77.008C31.2627 77.2113 30.9977 77.2697 30.7671 77.2697H20.0513C18.8988 77.2697 17.888 77.7252 16.9995 78.6838C16.1156 79.6374 15.6733 80.7823 15.6733 82.1467C15.6734 83.8401 16.0656 85.0965 16.7886 85.9777C17.4899 86.8325 18.5471 87.2931 20.0513 87.2931H41.4448C41.6515 87.2931 41.9001 87.3388 42.0981 87.5187C42.3053 87.707 42.3677 87.9589 42.3677 88.1769V96.9338C42.3677 97.1133 42.3221 97.3407 42.144 97.5187C41.9661 97.6964 41.7394 97.7414 41.5601 97.7414H35.106L35.0317 121.863C35.0315 122.043 34.9857 122.269 34.8081 122.446C34.6307 122.624 34.4052 122.668 34.2261 122.668L34.2271 122.669L20.2456 122.746H20.2437C17.0837 122.746 14.2729 121.954 11.8286 120.361V120.361C9.43525 118.81 7.54805 116.845 6.17529 114.469L6.17236 114.465C4.83037 112.097 4.14893 109.708 4.14893 107.305V102.119L4.15381 101.769C4.20222 100.136 4.58958 98.5566 5.31104 97.0334L5.47021 96.7082C6.26899 95.1112 7.29046 93.6796 8.53369 92.4152C7.53357 91.2294 6.7357 89.8207 6.13818 88.1955L6.13525 88.1877C5.49981 86.3608 5.18604 84.3452 5.18604 82.1467C5.18604 79.3502 5.84637 76.7806 7.17139 74.4484L7.17334 74.4465C8.49559 72.1457 10.2841 70.3163 12.5347 68.966C14.7928 67.6111 17.3023 66.9357 20.0513 66.9357H30.6909ZM19.9741 97.7414C18.9588 97.7414 18.05 97.9883 17.2358 98.4767C15.3312 99.6401 14.5211 100.863 14.521 102.119V107.305C14.521 107.96 14.7394 108.693 15.2202 109.51C15.6876 110.304 16.3439 110.977 17.2007 111.526C18.03 112.032 19.0363 112.296 20.2407 112.296L24.854 112.228L24.9253 97.7414H19.9741Z" fill="black" stroke="black"/>
</svg>
